# xmcd
#
# Track frame offsets: 
#        150
#        31640
#        53671
#        83342
#        107277
#        148053
#        176269
#        196162
#        214933
#        234282
#
# Disc length: 3205 seconds
#
# Revision: 0
# Processed by: cddbd v1.5.2PL0 Copyright (c) Steve Scherf et al.
# Submitted via: ExactAudioCopy v1.3
#
DISCID=6d0c830a
DTITLE=Billy Branch and The Sons Of Blues - Billy Branch And The Sons Of
DTITLE=Blues
DYEAR=2000
DGENRE=Blues
TTITLE0=Crank It Up Baby Scratch My Back
TTITLE1=Shake, Rattle and Roll
TTITLE2=The Thrill Is Gone
TTITLE3=Nick's Groove
TTITLE4=Let's Straighten It Out
TTITLE5=Messin With The Kig Next Time Your See Me
TTITLE6=Tribute To The Boogie Man
TTITLE7=I Don't Want Much
TTITLE8=Who Done It
TTITLE9=Sweet Home Chicago
EXTD=
EXTT0=
EXTT1=
EXTT2=
EXTT3=
EXTT4=
EXTT5=
EXTT6=
EXTT7=
EXTT8=
EXTT9=
PLAYORDER=
